<svg width="134" height="162" viewBox="0 0 134 162" fill="none" xmlns="http://www.w3.org/2000/svg">
<path d="M3.10653 121.426L4.94744 110.112L47.0199 57.4545H56.4545L53.7699 73.5625H48.0554L19.6747 109.115L19.598 109.729H66.1577L64.2017 121.426H3.10653ZM38.1222 136L41.1136 117.936L42.1491 112.912L51.3153 57.4545H64.7386L51.6989 136H38.1222Z" fill="#FB8700"/>
<path d="M92.919 46.0909L91.1165 56.8295H56.2926L58.0952 46.0909H92.919ZM56.9446 105L67.7216 40.5298C68.3352 36.5668 69.6776 33.2685 71.7486 30.6349C73.8452 28.0014 76.3892 26.0327 79.3807 24.7287C82.3977 23.4247 85.6065 22.7727 89.0071 22.7727C91.4361 22.7727 93.5455 22.9645 95.3352 23.348C97.125 23.7315 98.429 24.0767 99.2472 24.3835L94.7599 35.1222C94.1719 34.9432 93.456 34.7642 92.6122 34.5852C91.794 34.3807 90.8352 34.2784 89.7358 34.2784C87.1534 34.2784 85.223 34.9048 83.9446 36.1577C82.6662 37.3849 81.8224 39.1491 81.4134 41.4503L70.8665 105H56.9446ZM133.275 46.0909L131.473 56.8295H97.646L99.4102 46.0909H133.275ZM110.072 31.9773H123.956L114.751 87.2812C114.47 89.1477 114.521 90.5795 114.904 91.5767C115.314 92.5483 115.966 93.2131 116.86 93.571C117.781 93.929 118.816 94.108 119.967 94.108C120.811 94.108 121.603 94.044 122.345 93.9162C123.086 93.7628 123.674 93.6477 124.109 93.571L124.723 104.425C123.879 104.68 122.741 104.962 121.309 105.268C119.903 105.575 118.216 105.754 116.247 105.805C112.718 105.882 109.65 105.345 107.042 104.195C104.46 103.018 102.568 101.216 101.366 98.7869C100.19 96.3324 99.9215 93.2642 100.561 89.5824L110.072 31.9773Z" fill="#000D2F"/>
</svg>
