<svg width="311" height="130" viewBox="0 0 311 130" fill="none" xmlns="http://www.w3.org/2000/svg">
<path d="M3.10653 105.426L4.94744 94.1122L47.0199 41.4545H56.4545L53.7699 57.5625H48.0554L19.6747 93.1151L19.598 93.7287H66.1577L64.2017 105.426H3.10653ZM38.1222 120L41.1136 101.936L42.1491 96.9119L51.3153 41.4545H64.7386L51.6989 120H38.1222Z" fill="#FB8700"/>
<path d="M92.919 30.0909L91.1165 40.8295H56.2926L58.0952 30.0909H92.919ZM56.9446 89L67.7216 24.5298C68.3352 20.5668 69.6776 17.2685 71.7486 14.6349C73.8452 12.0014 76.3892 10.0327 79.3807 8.72869C82.3977 7.42471 85.6065 6.77272 89.0071 6.77272C91.4361 6.77272 93.5455 6.96448 95.3352 7.34801C97.125 7.73153 98.429 8.0767 99.2472 8.38352L94.7599 19.1222C94.1719 18.9432 93.456 18.7642 92.6122 18.5852C91.794 18.3807 90.8352 18.2784 89.7358 18.2784C87.1534 18.2784 85.223 18.9048 83.9446 20.1577C82.6662 21.3849 81.8224 23.1491 81.4134 25.4503L70.8665 89H56.9446ZM133.275 30.0909L131.473 40.8295H97.646L99.4102 30.0909H133.275ZM110.072 15.9773H123.956L114.751 71.2812C114.47 73.1477 114.521 74.5795 114.904 75.5767C115.314 76.5483 115.966 77.2131 116.86 77.571C117.781 77.929 118.816 78.108 119.967 78.108C120.811 78.108 121.603 78.044 122.345 77.9162C123.086 77.7628 123.674 77.6477 124.109 77.571L124.723 88.4247C123.879 88.6804 122.741 88.9616 121.309 89.2685C119.903 89.5753 118.216 89.7543 116.247 89.8054C112.718 89.8821 109.65 89.3452 107.042 88.1946C104.46 87.0185 102.568 85.2159 101.366 82.7869C100.19 80.3324 99.9215 77.2642 100.561 73.5824L110.072 15.9773Z" fill="#000D2F"/>
<path d="M152.682 103.793C150.193 103.793 148.028 103.349 146.188 102.463C144.347 101.56 142.991 100.23 142.122 98.4744C141.27 96.7187 141.057 94.554 141.483 91.9801C141.858 89.7642 142.574 87.9318 143.631 86.483C144.705 85.0341 146.017 83.875 147.568 83.0057C149.136 82.1193 150.841 81.4545 152.682 81.0114C154.54 80.5682 156.432 80.2443 158.358 80.0398C160.71 79.8011 162.611 79.5795 164.06 79.375C165.526 79.1705 166.625 78.8636 167.358 78.4545C168.091 78.0284 168.534 77.3807 168.688 76.5114V76.358C168.994 74.4318 168.688 72.9403 167.767 71.8835C166.847 70.8267 165.313 70.2983 163.165 70.2983C160.915 70.2983 159.023 70.7926 157.489 71.7812C155.955 72.7699 154.838 73.9375 154.139 75.2841L145.753 74.0568C146.81 71.6705 148.259 69.6761 150.099 68.0739C151.94 66.4545 154.063 65.2443 156.466 64.4432C158.886 63.625 161.469 63.2159 164.213 63.2159C166.088 63.2159 167.92 63.4375 169.71 63.8807C171.517 64.3239 173.111 65.0568 174.491 66.0795C175.889 67.0852 176.912 68.4574 177.56 70.196C178.224 71.9347 178.335 74.108 177.892 76.7159L173.52 103H164.622L165.543 97.6051H165.236C164.503 98.696 163.548 99.7187 162.372 100.673C161.196 101.611 159.798 102.369 158.179 102.949C156.56 103.511 154.727 103.793 152.682 103.793ZM156.185 96.9915C158.043 96.9915 159.713 96.625 161.196 95.892C162.679 95.142 163.898 94.1534 164.852 92.9261C165.807 91.6989 166.403 90.3608 166.642 88.9119L167.409 84.2841C167.068 84.5227 166.54 84.7443 165.824 84.9489C165.108 85.1534 164.307 85.3324 163.42 85.4858C162.551 85.6392 161.69 85.7756 160.838 85.8949C159.986 86.0142 159.253 86.1165 158.639 86.2017C157.224 86.3892 155.929 86.696 154.753 87.1222C153.594 87.5483 152.631 88.1449 151.864 88.9119C151.114 89.6619 150.645 90.6335 150.457 91.8267C150.185 93.5142 150.585 94.8011 151.659 95.6875C152.733 96.5568 154.241 96.9915 156.185 96.9915ZM180.398 117.727L189.449 63.7273H198.551L197.503 70.2216H198.04C198.653 69.267 199.48 68.2528 200.52 67.179C201.577 66.0881 202.915 65.1591 204.534 64.392C206.153 63.608 208.122 63.2159 210.44 63.2159C213.457 63.2159 216.057 63.9915 218.239 65.5426C220.42 67.0767 221.98 69.3523 222.918 72.3693C223.872 75.3693 223.991 79.0511 223.276 83.4148C222.56 87.7273 221.239 91.392 219.312 94.4091C217.386 97.4261 215.077 99.7273 212.384 101.312C209.69 102.898 206.801 103.69 203.716 103.69C201.466 103.69 199.651 103.315 198.27 102.565C196.906 101.815 195.875 100.912 195.176 99.8551C194.477 98.7812 193.957 97.767 193.616 96.8125H193.207L189.73 117.727H180.398ZM195.253 83.3636C194.844 85.9034 194.835 88.1278 195.227 90.0369C195.636 91.946 196.446 93.4375 197.656 94.5114C198.866 95.5682 200.452 96.0966 202.412 96.0966C204.457 96.0966 206.247 95.5511 207.781 94.4602C209.332 93.3523 210.619 91.8437 211.642 89.9347C212.682 88.0085 213.415 85.8182 213.841 83.3636C214.233 80.9261 214.233 78.7614 213.841 76.8693C213.449 74.9773 212.656 73.4943 211.463 72.4205C210.27 71.3466 208.651 70.8097 206.605 70.8097C204.611 70.8097 202.83 71.3295 201.261 72.3693C199.71 73.4091 198.423 74.8665 197.401 76.7415C196.378 78.6165 195.662 80.8239 195.253 83.3636ZM225.468 117.727L234.519 63.7273H243.621L242.573 70.2216H243.11C243.724 69.267 244.55 68.2528 245.59 67.179C246.647 66.0881 247.985 65.1591 249.604 64.392C251.224 63.608 253.192 63.2159 255.511 63.2159C258.528 63.2159 261.127 63.9915 263.309 65.5426C265.491 67.0767 267.05 69.3523 267.988 72.3693C268.942 75.3693 269.062 79.0511 268.346 83.4148C267.63 87.7273 266.309 91.392 264.383 94.4091C262.457 97.4261 260.147 99.7273 257.454 101.312C254.761 102.898 251.871 103.69 248.786 103.69C246.536 103.69 244.721 103.315 243.34 102.565C241.977 101.815 240.945 100.912 240.246 99.8551C239.548 98.7812 239.028 97.767 238.687 96.8125H238.278L234.8 117.727H225.468ZM240.323 83.3636C239.914 85.9034 239.906 88.1278 240.298 90.0369C240.707 91.946 241.516 93.4375 242.727 94.5114C243.937 95.5682 245.522 96.0966 247.482 96.0966C249.528 96.0966 251.317 95.5511 252.852 94.4602C254.403 93.3523 255.69 91.8437 256.712 89.9347C257.752 88.0085 258.485 85.8182 258.911 83.3636C259.303 80.9261 259.303 78.7614 258.911 76.8693C258.519 74.9773 257.727 73.4943 256.533 72.4205C255.34 71.3466 253.721 70.8097 251.675 70.8097C249.681 70.8097 247.9 71.3295 246.332 72.3693C244.781 73.4091 243.494 74.8665 242.471 76.7415C241.448 78.6165 240.732 80.8239 240.323 83.3636ZM308.788 74.108L300.274 75.0284C300.189 74.1591 299.925 73.3494 299.482 72.5994C299.038 71.8494 298.374 71.2528 297.487 70.8097C296.618 70.3494 295.493 70.1193 294.112 70.1193C292.101 70.1193 290.337 70.571 288.82 71.4744C287.303 72.3778 286.442 73.5369 286.237 74.9517C286.05 76.0085 286.305 76.8693 287.004 77.5341C287.703 78.1989 288.999 78.7614 290.891 79.2216L297.385 80.6534C300.964 81.4545 303.538 82.75 305.107 84.5398C306.692 86.3295 307.246 88.6733 306.768 91.571C306.359 93.9915 305.303 96.1222 303.598 97.9631C301.893 99.7869 299.712 101.21 297.053 102.233C294.411 103.256 291.479 103.767 288.257 103.767C283.365 103.767 279.598 102.753 276.956 100.724C274.331 98.679 273.027 95.8665 273.044 92.2869L282.146 91.4176C282.249 93.1903 282.871 94.5284 284.013 95.4318C285.155 96.3182 286.74 96.7699 288.768 96.7869C291.053 96.804 292.979 96.3267 294.547 95.3551C296.132 94.3665 297.027 93.1648 297.232 91.75C297.402 90.6932 297.138 89.8324 296.439 89.1676C295.757 88.5028 294.538 87.9744 292.783 87.5824L286.339 86.1761C282.692 85.375 280.092 84.0199 278.541 82.1108C277.007 80.1847 276.487 77.7557 276.982 74.8239C277.391 72.4375 278.388 70.3835 279.973 68.6619C281.575 66.9233 283.629 65.5852 286.135 64.6477C288.641 63.6932 291.445 63.2159 294.547 63.2159C299.217 63.2159 302.737 64.196 305.107 66.1562C307.476 68.1165 308.703 70.767 308.788 74.108Z" fill="#444444"/>
</svg>
